<svg width="32" height="32" viewBox="0 0 32 32" fill="none" xmlns="http://www.w3.org/2000/svg">
  <!-- Cat body -->
  <ellipse cx="16" cy="20" rx="10" ry="8" fill="#3B7EA1" stroke="#012169" stroke-width="1"/>

  <!-- Cat head -->
  <circle cx="16" cy="12" r="7" fill="#3B7EA1" stroke="#012169" stroke-width="1"/>

  <!-- Left ear -->
  <path d="M11,6 L9,2 L13,7 Z" fill="#3B7EA1" stroke="#012169" stroke-width="0.8"/>
  <path d="M11,7 L10,4 L12,7 Z" fill="#FFB6C1"/>

  <!-- Right ear -->
  <path d="M21,6 L23,2 L19,7 Z" fill="#3B7EA1" stroke="#012169" stroke-width="0.8"/>
  <path d="M21,7 L22,4 L20,7 Z" fill="#FFB6C1"/>

  <!-- Eyes -->
  <circle cx="13" cy="11" r="1.5" fill="#012169"/>
  <circle cx="19" cy="11" r="1.5" fill="#012169"/>
  <circle cx="13.5" cy="10.5" r="0.5" fill="white"/>
  <circle cx="19.5" cy="10.5" r="0.5" fill="white"/>

  <!-- Nose -->
  <circle cx="16" cy="14" r="1" fill="#012169"/>

  <!-- Mouth -->
  <path d="M16,14 L14,15.5 M16,14 L18,15.5" stroke="#012169" stroke-width="0.8" fill="none" stroke-linecap="round"/>

  <!-- Whiskers -->
  <path d="M10,12 L6,12 M22,12 L26,12" stroke="#012169" stroke-width="0.5" stroke-linecap="round"/>
  <path d="M10,13.5 L6,14 M22,13.5 L26,14" stroke="#012169" stroke-width="0.5" stroke-linecap="round"/>

  <!-- Tail -->
  <path d="M24,18 Q28,15 30,10" stroke="#012169" stroke-width="2" fill="none" stroke-linecap="round"/>

  <!-- Paws -->
  <circle cx="13" cy="27" r="2" fill="#3B7EA1" stroke="#012169" stroke-width="0.8"/>
  <circle cx="19" cy="27" r="2" fill="#3B7EA1" stroke="#012169" stroke-width="0.8"/>
</svg>
